<?xml version="1.0" encoding="UTF-8" standalone="no"?>
<svg
   xmlns:dc="http://purl.org/dc/elements/1.1/"
   xmlns:cc="http://creativecommons.org/ns#"
   xmlns:rdf="http://www.w3.org/1999/02/22-rdf-syntax-ns#"
   xmlns:svg="http://www.w3.org/2000/svg"
   xmlns="http://www.w3.org/2000/svg"
   xmlns:sodipodi="http://sodipodi.sourceforge.net/DTD/sodipodi-0.dtd"
   xmlns:inkscape="http://www.inkscape.org/namespaces/inkscape"
   height="300px"
   width="300px"
   fill="#000000"
   version="1.1"
   x="0px"
   y="0px"
   viewBox="0 0 100 100"
   enable-background="new 0 0 100 100"
   xml:space="preserve"
   id="svg68"
   sodipodi:docname="sockynotifier.svg"
   inkscape:export-filename="/Users/Peter/Devel/Swift/SockyNotifier/sockynotifier.png"
   inkscape:export-xdpi="446.77142"
   inkscape:export-ydpi="446.77142"
   inkscape:version="0.92.4 (5da689c313, 2019-01-14)"><metadata
     id="metadata74"><rdf:RDF><cc:Work
         rdf:about=""><dc:format>image/svg+xml</dc:format><dc:type
           rdf:resource="http://purl.org/dc/dcmitype/StillImage" /></cc:Work></rdf:RDF></metadata><defs
     id="defs72" /><sodipodi:namedview
     pagecolor="#ffffff"
     bordercolor="#666666"
     borderopacity="1"
     objecttolerance="10"
     gridtolerance="10"
     guidetolerance="10"
     inkscape:pageopacity="0"
     inkscape:pageshadow="2"
     inkscape:window-width="1381"
     inkscape:window-height="956"
     id="namedview70"
     showgrid="false"
     inkscape:zoom="3.8033333"
     inkscape:cx="150"
     inkscape:cy="223.61963"
     inkscape:window-x="156"
     inkscape:window-y="72"
     inkscape:window-maximized="0"
     inkscape:current-layer="svg68" /><g
     id="g66"><rect
       y="21.379"
       fill-rule="evenodd"
       clip-rule="evenodd"
       fill="#000000"
       width="6.623"
       height="65.293"
       id="rect62" /><path
       fill-rule="evenodd"
       clip-rule="evenodd"
       fill="#000000"
       d="M22.182,15.834L8.944,26.381l12.703,7.876L22.182,15.834z    M22.366,13.328c6.974,0.175,19.676,1.428,23.969,4.468c4.118,3.04,5.007,5.545,9.479,7.157c5.196,1.612,11.455,0.894,14.49,0.894   c3.05,0,8.59,0.175,13.776,1.428c5.016,1.438,13.961,6.264,15.922,7.866l-4.651,14.315c0,0-9.658-4.468-15.559-4.468   c-4.302,0-10.557,2.506-17.18,2.69c-6.799,0.175-10.188-0.894-14.306-1.797c-4.118-0.894-11.275-4.816-14.49-7.157   c-3.404-2.506-6.982-2.671-12.349-2.855L8.41,27.818H6.438l0.185-3.05H8.77l13.412-10.731L22.366,13.328z"
       id="path64" /></g></svg>